<svg width="32" height="32" viewBox="0 0 32 32" fill="none" xmlns="http://www.w3.org/2000/svg">
  <rect width="32" height="32" rx="8" fill="#F6851B"/>
  <path d="M25.5 4.5L18.5 10.5L20.5 6.5L25.5 4.5Z" fill="#E2761B" stroke="#E4761B" stroke-width="0.5" stroke-linecap="round" stroke-linejoin="round"/>
  <path d="M6.5 4.5L13.3 10.6L11.5 6.5L6.5 4.5Z" fill="#E4761B" stroke="#E4761B" stroke-width="0.5" stroke-linecap="round" stroke-linejoin="round"/>
  <path d="M21.5 19.5L19.5 22.5L25 23.5L26 19.5L21.5 19.5Z" fill="#E4761B" stroke="#E4761B" stroke-width="0.5" stroke-linecap="round" stroke-linejoin="round"/>
  <path d="M6 19.5L7 23.5L12.5 22.5L10.5 19.5L6 19.5Z" fill="#E4761B" stroke="#E4761B" stroke-width="0.5" stroke-linecap="round" stroke-linejoin="round"/>
  <path d="M12.5 14.5L14.5 16.5L21 16L19.5 14.5L12.5 14.5Z" fill="#E4761B" stroke="#E4761B" stroke-width="0.5" stroke-linecap="round" stroke-linejoin="round"/>
  <path d="M6 19.5L8.5 14.5L12.5 14.5L12.5 16.5L6 19.5Z" fill="#E4761B" stroke="#E4761B" stroke-width="0.5" stroke-linecap="round" stroke-linejoin="round"/>
  <path d="M19.5 14.5L21 16L25 19.5L23.5 14.5L19.5 14.5Z" fill="#E4761B" stroke="#E4761B" stroke-width="0.5" stroke-linecap="round" stroke-linejoin="round"/>
  <path d="M12.5 16.5L14.5 22.5L16 19.5L12.5 16.5Z" fill="#E4761B" stroke="#E4761B" stroke-width="0.5" stroke-linecap="round" stroke-linejoin="round"/>
  <path d="M19.5 16.5L21 19.5L22.5 22.5L19.5 16.5Z" fill="#E4761B" stroke="#E4761B" stroke-width="0.5" stroke-linecap="round" stroke-linejoin="round"/>
  <path d="M14.5 22.5L16 19.5L12.5 16.5L14.5 22.5Z" fill="#D7C1B3" stroke="#D7C1B3" stroke-width="0.5" stroke-linecap="round" stroke-linejoin="round"/>
  <path d="M19.5 16.5L22.5 22.5L21 19.5L19.5 16.5Z" fill="#D7C1B3" stroke="#D7C1B3" stroke-width="0.5" stroke-linecap="round" stroke-linejoin="round"/>
  <path d="M25 23.5L19.5 22.5L22.5 22.5L25 23.5Z" fill="#233447" stroke="#233447" stroke-width="0.5" stroke-linecap="round" stroke-linejoin="round"/>
  <path d="M6 23.5L8.5 22.5L12.5 22.5L6 23.5Z" fill="#233447" stroke="#233447" stroke-width="0.5" stroke-linecap="round" stroke-linejoin="round"/>
  <path d="M12.5 14.5L8.5 14.5L10.5 16.5L12.5 16.5L12.5 14.5Z" fill="#CD6116" stroke="#CD6116" stroke-width="0.5" stroke-linecap="round" stroke-linejoin="round"/>
  <path d="M19.5 14.5L19.5 16.5L21 16.5L23.5 14.5L19.5 14.5Z" fill="#CD6116" stroke="#CD6116" stroke-width="0.5" stroke-linecap="round" stroke-linejoin="round"/>
  <path d="M12.5 16.5L14.5 19.5L12.5 22.5L12.5 16.5Z" fill="#CD6116" stroke="#CD6116" stroke-width="0.5" stroke-linecap="round" stroke-linejoin="round"/>
  <path d="M19.5 16.5L19.5 22.5L17.5 19.5L19.5 16.5Z" fill="#CD6116" stroke="#CD6116" stroke-width="0.5" stroke-linecap="round" stroke-linejoin="round"/>
  <path d="M19.5 22.5L14.5 22.5L16 19.5L17.5 19.5L19.5 22.5Z" fill="#E4751F" stroke="#E4751F" stroke-width="0.5" stroke-linecap="round" stroke-linejoin="round"/>
  <path d="M8.5 14.5L12.5 14.5L10.5 16.5L8.5 14.5Z" fill="#F5841F" stroke="#F5841F" stroke-width="0.5" stroke-linecap="round" stroke-linejoin="round"/>
  <path d="M19.5 14.5L23.5 14.5L21 16.5L19.5 14.5Z" fill="#F5841F" stroke="#F5841F" stroke-width="0.5" stroke-linecap="round" stroke-linejoin="round"/>
  <path d="M12.5 16.5L14.5 19.5L12.5 22.5L12.5 16.5Z" fill="#F5841F" stroke="#F5841F" stroke-width="0.5" stroke-linecap="round" stroke-linejoin="round"/>
  <path d="M19.5 16.5L19.5 22.5L17.5 19.5L19.5 16.5Z" fill="#F5841F" stroke="#F5841F" stroke-width="0.5" stroke-linecap="round" stroke-linejoin="round"/>
</svg>
